<?xml version="1.0" encoding="UTF-8" standalone="no"?>
<!-- Created with Inkscape (http://www.inkscape.org/) -->

<svg
   xmlns:osb="http://www.openswatchbook.org/uri/2009/osb"
   xmlns:dc="http://purl.org/dc/elements/1.1/"
   xmlns:cc="http://creativecommons.org/ns#"
   xmlns:rdf="http://www.w3.org/1999/02/22-rdf-syntax-ns#"
   xmlns:svg="http://www.w3.org/2000/svg"
   xmlns="http://www.w3.org/2000/svg"
   xmlns:sodipodi="http://sodipodi.sourceforge.net/DTD/sodipodi-0.dtd"
   xmlns:inkscape="http://www.inkscape.org/namespaces/inkscape"
   width="1024"
   height="1024"
   id="svg2985"
   version="1.1"
   inkscape:version="0.48.3.1 r9886"
   sodipodi:docname="uv-5a.xcf">
  <defs
     id="defs2987">
    <linearGradient
       id="linearGradient3997"
       osb:paint="solid">
      <stop
         style="stop-color:#fe2b23;stop-opacity:1;"
         offset="0"
         id="stop3999" />
    </linearGradient>
  </defs>
  <sodipodi:namedview
     id="base"
     pagecolor="#000000"
     bordercolor="#666666"
     borderopacity="1.0"
     inkscape:pageopacity="0"
     inkscape:pageshadow="2"
     inkscape:zoom="0.4375"
     inkscape:cx="541.08037"
     inkscape:cy="469.46717"
     inkscape:current-layer="layer3"
     showgrid="true"
     inkscape:grid-bbox="true"
     inkscape:document-units="px"
     inkscape:window-width="1280"
     inkscape:window-height="948"
     inkscape:window-x="0"
     inkscape:window-y="24"
     inkscape:window-maximized="1" />
  <metadata
     id="metadata2990">
    <rdf:RDF>
      <cc:Work
         rdf:about="">
        <dc:format>image/svg+xml</dc:format>
        <dc:type
           rdf:resource="http://purl.org/dc/dcmitype/StillImage" />
        <dc:title></dc:title>
      </cc:Work>
    </rdf:RDF>
  </metadata>
  <g
     inkscape:groupmode="layer"
     id="layer2"
     inkscape:label="Ebene">
    <path
       style="fill:#000000;fill-opacity:1;stroke:#ffff00;stroke-width:20.5714283;stroke-linecap:butt;stroke-linejoin:miter;stroke-miterlimit:9.19999981;stroke-opacity:1;stroke-dasharray:none"
       d=""
       id="path3764"
       inkscape:connector-curvature="0" />
    <path
       style="fill:#000000;fill-opacity:1;stroke:#ffff00;stroke-width:20.5714283;stroke-linecap:butt;stroke-linejoin:miter;stroke-miterlimit:9.19999981;stroke-opacity:1;stroke-dasharray:none"
       d=""
       id="path3766"
       inkscape:connector-curvature="0" />
    <path
       style="fill:#000000;fill-opacity:1;stroke:#ffff00;stroke-width:20.5714283;stroke-linecap:butt;stroke-linejoin:miter;stroke-miterlimit:9.19999981;stroke-opacity:1;stroke-dasharray:none"
       d=""
       id="path3768"
       inkscape:connector-curvature="0" />
    <path
       style="fill:#000000;fill-opacity:1;stroke:#ffff00;stroke-width:20.5714283;stroke-linecap:butt;stroke-linejoin:miter;stroke-miterlimit:9.19999981;stroke-opacity:1;stroke-dasharray:none"
       d=""
       id="path3770"
       inkscape:connector-curvature="0" />
    <path
       style="fill:#000000;fill-opacity:1;stroke:#ffff00;stroke-width:20.5714283;stroke-linecap:butt;stroke-linejoin:miter;stroke-miterlimit:9.19999981;stroke-opacity:1;stroke-dasharray:none"
       d=""
       id="path3772"
       inkscape:connector-curvature="0" />
    <path
       style="fill:#000000;fill-opacity:1;stroke:#ffff00;stroke-width:20.5714283;stroke-linecap:butt;stroke-linejoin:miter;stroke-miterlimit:9.19999981;stroke-opacity:1;stroke-dasharray:none"
       d=""
       id="path3774"
       inkscape:connector-curvature="0" />
    <path
       style="fill:#000000;fill-opacity:1;stroke:#ffff00;stroke-width:20.5714283;stroke-linecap:butt;stroke-linejoin:miter;stroke-miterlimit:9.19999981;stroke-opacity:1;stroke-dasharray:none"
       d=""
       id="path3776"
       inkscape:connector-curvature="0" />
    <path
       style="fill:#000000;fill-opacity:1;stroke:#ffff00;stroke-width:20.5714283;stroke-linecap:butt;stroke-linejoin:miter;stroke-miterlimit:9.19999981;stroke-opacity:1;stroke-dasharray:none"
       d=""
       id="path3778"
       inkscape:connector-curvature="0" />
    <path
       style="fill:#000000;fill-opacity:1;stroke:#ffff00;stroke-width:20.5714283;stroke-linecap:butt;stroke-linejoin:miter;stroke-miterlimit:9.19999981;stroke-opacity:1;stroke-dasharray:none"
       d=""
       id="path3780"
       inkscape:connector-curvature="0" />
    <path
       style="fill:#000000;fill-opacity:1;stroke:#ffff00;stroke-width:20.5714283;stroke-linecap:butt;stroke-linejoin:miter;stroke-miterlimit:9.19999981;stroke-opacity:1;stroke-dasharray:none"
       d=""
       id="path3782"
       inkscape:connector-curvature="0" />
    <path
       style="fill:#000000;fill-opacity:1;stroke:#ffff00;stroke-width:20.5714283;stroke-linecap:butt;stroke-linejoin:miter;stroke-miterlimit:9.19999981;stroke-opacity:1;stroke-dasharray:none"
       d=""
       id="path3784"
       inkscape:connector-curvature="0" />
    <path
       style="fill:#000000;fill-opacity:1;stroke:#ffff00;stroke-width:20.5714283;stroke-linecap:butt;stroke-linejoin:miter;stroke-miterlimit:9.19999981;stroke-opacity:1;stroke-dasharray:none"
       d=""
       id="path3786"
       inkscape:connector-curvature="0" />
    <path
       style="fill:#000000;fill-opacity:1;stroke:#ffff00;stroke-width:20.5714283;stroke-linecap:butt;stroke-linejoin:miter;stroke-miterlimit:9.19999981;stroke-opacity:1;stroke-dasharray:none"
       d=""
       id="path3788"
       inkscape:connector-curvature="0" />
    <path
       style="fill:#000000;fill-opacity:1;stroke:#ffff00;stroke-width:20.5714283;stroke-linecap:butt;stroke-linejoin:miter;stroke-miterlimit:9.19999981;stroke-opacity:1;stroke-dasharray:none"
       d=""
       id="path3790"
       inkscape:connector-curvature="0" />
    <rect
       style="fill:#000000;fill-opacity:1;stroke:#ffff00;stroke-width:9;stroke-linecap:butt;stroke-linejoin:miter;stroke-miterlimit:9.19999981;stroke-opacity:1;stroke-dasharray:none"
       id="rect3794"
       width="1078.8572"
       height="1069.7142"
       x="-20.571428"
       y="-4.5714264" />
  </g>
  <g
     id="layer1"
     inkscape:label="Layer 1"
     inkscape:groupmode="layer"
     transform="translate(0,976)">
    <path
       sodipodi:type="star"
       style="fill:#ffffff;fill-opacity:1;stroke:#feffff;stroke-width:8;stroke-linecap:butt;stroke-linejoin:miter;stroke-miterlimit:0;stroke-opacity:1;stroke-dasharray:none"
       id="path4016"
       sodipodi:sides="24"
       sodipodi:cx="347.42856"
       sodipodi:cy="596.57141"
       sodipodi:r1="849.75714"
       sodipodi:r2="8.4975719"
       sodipodi:arg1="0.52359878"
       sodipodi:arg2="0.65449847"
       inkscape:flatsided="false"
       inkscape:rounded="0"
       inkscape:randomized="0"
       d="M 1083.3398,1021.45 354.17014,601.74441 948.29759,1197.4405 352.60155,603.31299 772.30713,1332.4827 350.68044,604.42214 567.36189,1417.3738 348.53771,604.99629 347.42855,1446.3286 346.3194,604.99629 127.49522,1417.3738 344.17668,604.42214 -77.450015,1332.4827 342.25556,603.31299 -253.44048,1197.4404 340.68698,601.74441 -388.48271,1021.45 339.57783,599.82329 -473.37381,816.50474 339.00368,597.68057 -502.32858,596.57141 339.00368,595.46226 -473.37381,376.63808 339.57783,593.31953 -388.48271,171.69284 340.68698,591.39842 -253.44048,-4.2976284 342.25556,589.82983 -77.450009,-139.33986 344.17668,588.72068 127.49523,-224.23096 l 218.82417,812.3775 1.10916,-841.33227 1.10915,841.33227 218.82418,-812.3775 L 350.68044,588.72068 772.30713,-139.33986 352.60155,589.82983 948.2976,-4.2976231 354.17014,591.39842 1083.3398,171.69284 355.27929,593.31953 1168.2309,376.63808 355.85343,595.46226 1197.1857,596.57141 355.85343,597.68057 1168.2309,816.50475 355.27929,599.82329 z"
       transform="matrix(-0.11743303,0.98701691,-0.99245368,-0.11807989,1144.8691,-727.19523)"
       inkscape:transform-center-y="-7.9686314"
       inkscape:transform-center-x="1.1591416" />
  </g>
  <g
     transform="translate(0,976)"
     inkscape:groupmode="layer"
     inkscape:label="Layer 1 Kopie"
     id="g3010" />
  <g
     inkscape:groupmode="layer"
     id="layer3"
     inkscape:label="120">
    <path
       sodipodi:type="star"
       style="fill:#000000;fill-opacity:1;stroke:#feffff;stroke-width:7.86999989;stroke-linecap:butt;stroke-linejoin:miter;stroke-miterlimit:0;stroke-opacity:1;stroke-dasharray:none"
       id="path3818"
       sodipodi:sides="120"
       sodipodi:cx="509.71429"
       sodipodi:cy="518.85712"
       sodipodi:r1="720.72528"
       sodipodi:r2="7.207253"
       sodipodi:arg1="0.90001772"
       sodipodi:arg2="0.92619766"
       inkscape:flatsided="false"
       inkscape:rounded="0"
       inkscape:randomized="0"
       d="M 957.71431,1083.4286 514.04497,524.61817 927.55295,1106.1013 513.73753,524.83692 896.24633,1127.1645 513.41905,525.03929 863.88025,1146.5604 513.09043,525.22471 830.54343,1164.2358 512.75255,525.39268 796.32724,1180.1422 512.40634,525.54273 761.32546,1194.2361 512.05275,525.67446 725.63403,1206.4788 511.69275,525.7875 689.35078,1216.8368 511.32733,525.88155 652.57516,1225.2817 510.95749,525.95634 615.40797,1231.7903 510.58424,526.01167 577.95107,1236.3449 510.20861,526.0474 540.30715,1238.9328 509.83162,526.06341 502.57937,1239.5471 509.45432,526.05968 464.87115,1238.186 509.07772,526.0362 427.28585,1234.8533 508.70287,525.99305 389.92647,1229.558 508.33079,525.93033 352.89542,1222.3148 507.9625,525.84823 316.2942,1213.1435 507.59901,525.74697 280.22314,1202.0692 507.24133,525.62682 244.78109,1189.1222 506.89042,525.48812 210.0652,1174.3381 506.54725,525.33124 176.17064,1157.7574 506.21276,525.15662 143.19029,1139.4255 505.88786,524.96473 111.21456,1119.3926 505.57346,524.7561 80.33109,1097.7137 505.27041,524.5313 50.62453,1074.4483 504.97953,524.29095 22.176303,1049.6599 504.70164,524.0357 -4.9356165,1023.4167 504.43748,523.76626 -30.636916,995.79055 504.18779,523.48337 -54.857151,966.85713 503.95324,523.18779 -77.529935,936.69578 503.73449,522.88035 -98.593123,905.38915 503.53212,522.56188 -117.98898,873.02308 503.3467,522.23325 -135.66435,839.68625 503.17874,521.89537 -151.57078,805.47006 503.02868,521.54916 -165.66468,770.46828 502.89695,521.19557 -177.9074,734.77685 502.78391,520.83558 -188.26541,698.4936 502.68987,520.47016 -196.7103,661.71798 502.61507,520.10032 l -705.834,104.45047 705.77867,-104.82372 -710.3332,67.36683 710.29747,-67.74247 -712.88541,30.09854 712.8694,-30.47552 -713.48367,-7.25225 713.4874,6.87494 -712.12631,-44.58316 712.14979,44.20656 -708.81706,-81.79187 708.86021,81.41702 L -200.98663,399.06929 502.64108,517.47361 -193.74343,362.03824 502.72318,517.10532 -184.5721,325.43702 502.82444,516.74184 -173.49778,289.36596 502.94459,516.38415 -160.55082,253.92391 503.08329,516.03324 -145.76671,219.20803 503.24017,515.69007 -129.18598,185.31346 503.41479,515.35558 -110.85406,152.33311 503.60668,515.03069 -90.82121,120.35738 503.81531,514.71628 -69.142332,89.473913 504.04011,514.41323 -45.876849,59.767352 504.28046,514.12236 -21.088529,31.319125 504.53571,513.84446 5.154685,4.2072057 504.80515,513.5803 32.780862,-21.494094 505.08804,513.33061 61.71428,-45.714329 505.38362,513.09606 91.875635,-68.387112 505.69106,512.87731 123.18226,-89.4503 506.00953,512.67494 155.54834,-108.84616 506.33816,512.48952 188.88516,-126.52153 506.67604,512.32156 223.10135,-142.42796 507.02225,512.17151 258.10313,-156.52185 507.37584,512.03978 293.79456,-168.76458 507.73584,511.92673 330.07781,-179.12258 508.10125,511.83269 366.85343,-187.56748 508.4711,511.75789 404.02062,-194.0761 l 104.82372,705.77866 -67.36683,-710.33319 67.74247,710.29747 -30.09854,-712.88542 30.47552,712.8694 7.25226,-713.48367 -6.87495,713.4874 44.58317,-712.1263 -44.20657,712.14978 81.79187,-708.81706 -81.41702,708.86022 118.7764,-703.565 L 511.0978,511.7839 666.53317,-184.60061 511.46609,511.866 703.13439,-175.42928 511.82958,511.96726 739.20545,-164.35496 512.18726,512.08741 774.6475,-151.408 512.53817,512.22611 809.36339,-136.62389 512.88134,512.38299 843.25795,-120.04316 513.21583,512.55761 876.2383,-101.71124 513.54072,512.7495 908.21403,-81.678388 513.85513,512.95813 939.0975,-59.99951 514.15818,513.18293 968.80406,-36.734027 514.44906,513.42328 997.25229,-11.945707 514.72695,513.67853 1024.3642,14.297507 514.99111,513.94797 1050.0655,41.923684 515.2408,514.23086 1074.2857,70.857102 515.47535,514.52644 1096.9585,101.01846 515.6941,514.83388 1118.0217,132.32508 515.89647,515.15236 1137.4176,164.69116 516.08189,515.48098 1155.0929,198.02798 516.24985,515.81887 1170.9994,232.24417 516.39991,516.16507 1185.0933,267.24595 516.53163,516.51866 1197.336,302.93738 516.64468,516.87866 1207.694,339.22063 516.73872,517.24408 1216.1389,375.99625 516.81352,517.61392 1222.6475,413.16345 516.86885,517.98717 1227.202,450.62034 516.90458,518.3628 1229.79,488.26426 516.92059,518.73979 1230.4043,525.99204 516.91686,519.1171 1229.0432,563.70026 516.89338,519.49369 1225.7104,601.28557 516.85023,519.86854 1220.4152,638.64494 516.78751,520.24062 1213.172,675.67599 516.70541,520.60891 1204.0007,712.27721 516.60415,520.9724 1192.9264,748.34828 516.484,521.33009 1179.9794,783.79032 516.3453,521.681 1165.1953,818.50621 516.18842,522.02417 1148.6146,852.40077 516.0138,522.35865 1130.2827,885.38112 515.82191,522.68355 1110.2498,917.35685 515.61328,522.99795 1088.5709,948.24032 515.38848,523.301 1065.3054,977.94688 515.14813,523.59188 1040.5171,1006.3951 514.89288,523.86977 1014.2739,1033.507 514.62344,524.13393 986.64773,1059.2083 514.34055,524.38362 z"
       transform="matrix(0.9912143,0.13226569,-0.13226569,0.9912143,73.105194,-62.859191)" />
  </g>
</svg>
